<svg width="14" height="8" viewBox="0 0 14 8" fill="none" xmlns="http://www.w3.org/2000/svg">
<path d="M7.02232 7.83482C6.93304 7.92411 6.83036 7.96875 6.71429 7.96875C6.59821 7.96875 6.49554 7.92411 6.40625 7.83482L0.165179 1.59375C0.0758929 1.50446 0.0312501 1.40179 0.0312501 1.28571C0.0312501 1.16964 0.0758929 1.06696 0.165179 0.977679L0.834822 0.308036C0.924107 0.21875 1.02679 0.174107 1.14286 0.174107C1.25893 0.174107 1.36161 0.21875 1.45089 0.308036L6.71429 5.57143L11.9777 0.308036C12.067 0.21875 12.1696 0.174107 12.2857 0.174107C12.4018 0.174107 12.5045 0.21875 12.5938 0.308036L13.2634 0.977679C13.3527 1.06696 13.3973 1.16964 13.3973 1.28571C13.3973 1.40179 13.3527 1.50446 13.2634 1.59375L7.02232 7.83482Z" fill="white"/>
</svg>
