<svg width="76" height="19" viewBox="0 0 76 19" fill="none" xmlns="http://www.w3.org/2000/svg">
<path d="M6.32 4.8C7.792 4.8 8.928 5.06133 9.728 5.584C10.5387 6.096 10.944 6.80533 10.944 7.712C10.944 8.30933 10.7573 8.82667 10.384 9.264C10.0107 9.70133 9.49867 10.0213 8.848 10.224V10.304C9.616 10.4853 10.224 10.8107 10.672 11.28C11.12 11.7493 11.344 12.2987 11.344 12.928C11.344 13.5467 11.152 14.0853 10.768 14.544C10.3947 15.0027 9.84533 15.36 9.12 15.616C8.40533 15.872 7.54667 16 6.544 16H1.328V4.8H6.32ZM6.256 9.632C6.71467 9.632 7.06133 9.49333 7.296 9.216C7.53067 8.93867 7.648 8.53333 7.648 8C7.648 7.46667 7.52 7.06133 7.264 6.784C7.01867 6.50667 6.66133 6.368 6.192 6.368H4.752V9.632H6.256ZM6.176 14.432C6.72 14.432 7.136 14.2933 7.424 14.016C7.712 13.728 7.856 13.3173 7.856 12.784C7.856 12.2507 7.712 11.84 7.424 11.552C7.136 11.264 6.71467 11.12 6.16 11.12H4.752V14.432H6.176ZM16.9131 16.16C16.0491 16.16 15.2811 15.9893 14.6091 15.648C13.9478 15.3067 13.4305 14.8267 13.0571 14.208C12.6945 13.5893 12.5131 12.8693 12.5131 12.048C12.5131 11.2267 12.6998 10.496 13.0731 9.856C13.4571 9.216 13.9851 8.72 14.6571 8.368C15.3398 8.016 16.1078 7.84 16.9611 7.84C17.8038 7.84 18.5451 8.016 19.1851 8.368C19.8358 8.70933 20.3425 9.19467 20.7051 9.824C21.0678 10.4533 21.2545 11.1733 21.2651 11.984C21.2651 12.1973 21.2545 12.3573 21.2331 12.464H15.5531C15.6918 13.936 16.2998 14.672 17.3771 14.672C17.7931 14.672 18.1558 14.5707 18.4651 14.368C18.7745 14.1653 19.0038 13.8773 19.1531 13.504H20.8331C20.6838 14.272 20.2625 14.9067 19.5691 15.408C18.8758 15.9093 17.9905 16.16 16.9131 16.16ZM18.2571 11.504C18.1505 9.936 17.6971 9.152 16.8971 9.152C16.5131 9.152 16.2038 9.344 15.9691 9.728C15.7451 10.112 15.6065 10.6507 15.5531 11.344V11.504H18.2571ZM21.8219 9.52V8H23.1819V7.392C23.1819 6.37867 23.4752 5.58933 24.0619 5.024C24.6592 4.448 25.4645 4.16 26.4779 4.16C27.3952 4.16 28.1312 4.39467 28.6859 4.864C29.2512 5.33333 29.5339 5.96267 29.5339 6.752H27.9499V6.656C27.9499 6.32533 27.8112 6.05867 27.5339 5.856C27.2672 5.65333 26.9472 5.552 26.5739 5.552C26.2645 5.552 25.9925 5.63733 25.7579 5.808C25.5339 5.968 25.4219 6.21333 25.4219 6.544C25.4219 6.69333 25.4379 6.82667 25.4699 6.944C25.5125 7.06133 25.5552 7.17333 25.5979 7.28C25.6405 7.376 25.6672 7.44 25.6779 7.472C25.7739 7.664 25.8485 7.84 25.9019 8H28.6219V9.52H26.0459C26.1632 9.872 26.2219 10.2827 26.2219 10.752V16H23.1819V9.52H21.8219ZM31.4276 16.16C30.585 16.16 29.9236 15.968 29.4436 15.584C28.9743 15.1893 28.7396 14.6613 28.7396 14C28.7396 12.56 29.8863 11.7493 32.1796 11.568C32.8623 11.5147 33.3476 11.392 33.6356 11.2C33.9343 10.9973 34.0836 10.7147 34.0836 10.352C34.0836 10.0107 33.9716 9.75467 33.7476 9.584C33.5236 9.41333 33.2303 9.328 32.8676 9.328C32.4303 9.328 32.0463 9.46667 31.7156 9.744C31.3956 10.0213 31.1983 10.3893 31.1236 10.848H29.5556C29.6623 9.93067 30.0623 9.2 30.7556 8.656C31.4596 8.112 32.3343 7.84 33.3796 7.84C34.0836 7.84 34.7076 7.97867 35.2516 8.256C35.7956 8.52267 36.217 8.912 36.5156 9.424C36.825 9.92533 36.9796 10.5173 36.9796 11.2V14.512H37.7476V16H34.2276V14.816C33.641 15.712 32.7076 16.16 31.4276 16.16ZM32.5156 14.672C32.7716 14.672 33.0223 14.5867 33.2676 14.416C33.513 14.2347 33.7156 13.984 33.8756 13.664C34.0356 13.344 34.1156 12.9813 34.1156 12.576V11.856C34.0196 11.952 33.865 12.048 33.6516 12.144C33.449 12.2293 33.2356 12.2987 33.0116 12.352C32.585 12.448 32.281 12.6027 32.0996 12.816C31.929 13.0293 31.8436 13.3227 31.8436 13.696C31.8436 14.016 31.9023 14.2613 32.0196 14.432C32.1476 14.592 32.313 14.672 32.5156 14.672ZM42.2716 4.8H45.7596L49.7756 16H46.0316L45.0876 13.264H41.1836L40.2556 16H38.2556L42.2716 4.8ZM44.6076 11.712L43.1996 7.52H43.0716L41.6636 11.712H44.6076ZM53.9383 8V9.136C54.1729 8.70933 54.4823 8.38933 54.8663 8.176C55.2503 7.952 55.6983 7.84 56.2103 7.84C57.0209 7.84 57.6609 8.10667 58.1302 8.64C58.6103 9.16267 58.8503 9.93067 58.8503 10.944V11.392H55.8423V11.04C55.8423 10.1867 55.5809 9.76 55.0583 9.76C54.7489 9.76 54.5036 9.936 54.3223 10.288C54.1516 10.64 54.0663 11.0987 54.0663 11.664V16H51.0263V8H53.9383ZM63.7029 16.16C61.6975 16.16 60.6949 15.2533 60.6949 13.44V9.52H59.1749V8H60.1189C60.3642 8 60.5509 7.936 60.6789 7.808C60.8069 7.66933 60.8709 7.47733 60.8709 7.232V6.08H63.7349V8H66.0549V9.52H63.7349V13.28C63.7349 13.696 63.8149 14.0053 63.9749 14.208C64.1455 14.4107 64.4122 14.512 64.7749 14.512C65.0415 14.512 65.4682 14.4533 66.0549 14.336V15.84C65.7775 15.9467 65.4095 16.0267 64.9509 16.08C64.5029 16.1333 64.0869 16.16 63.7029 16.16Z" fill="white"/>
<circle cx="74" cy="6" r="2" fill="white"/>
</svg>
