<svg width="113" height="29" viewBox="0 0 113 29" fill="none" xmlns="http://www.w3.org/2000/svg">
<path d="M9.48 7.2C11.688 7.2 13.392 7.592 14.592 8.376C15.808 9.144 16.416 10.208 16.416 11.568C16.416 12.464 16.136 13.24 15.576 13.896C15.016 14.552 14.248 15.032 13.272 15.336V15.456C14.424 15.728 15.336 16.216 16.008 16.92C16.68 17.624 17.016 18.448 17.016 19.392C17.016 20.32 16.728 21.128 16.152 21.816C15.592 22.504 14.768 23.04 13.68 23.424C12.608 23.808 11.32 24 9.816 24H1.992V7.2H9.48ZM9.384 14.448C10.072 14.448 10.592 14.24 10.944 13.824C11.296 13.408 11.472 12.8 11.472 12C11.472 11.2 11.28 10.592 10.896 10.176C10.528 9.76 9.992 9.552 9.288 9.552H7.128V14.448H9.384ZM9.264 21.648C10.08 21.648 10.704 21.44 11.136 21.024C11.568 20.592 11.784 19.976 11.784 19.176C11.784 18.376 11.568 17.76 11.136 17.328C10.704 16.896 10.072 16.68 9.24 16.68H7.128V21.648H9.264ZM25.3697 24.24C24.0737 24.24 22.9217 23.984 21.9137 23.472C20.9217 22.96 20.1457 22.24 19.5857 21.312C19.0417 20.384 18.7697 19.304 18.7697 18.072C18.7697 16.84 19.0497 15.744 19.6097 14.784C20.1857 13.824 20.9777 13.08 21.9857 12.552C23.0097 12.024 24.1617 11.76 25.4417 11.76C26.7057 11.76 27.8177 12.024 28.7777 12.552C29.7537 13.064 30.5137 13.792 31.0577 14.736C31.6017 15.68 31.8817 16.76 31.8977 17.976C31.8977 18.296 31.8817 18.536 31.8497 18.696H23.3297C23.5377 20.904 24.4497 22.008 26.0657 22.008C26.6897 22.008 27.2337 21.856 27.6977 21.552C28.1617 21.248 28.5057 20.816 28.7297 20.256H31.2497C31.0257 21.408 30.3937 22.36 29.3537 23.112C28.3137 23.864 26.9857 24.24 25.3697 24.24ZM27.3857 17.256C27.2257 14.904 26.5457 13.728 25.3457 13.728C24.7697 13.728 24.3057 14.016 23.9537 14.592C23.6177 15.168 23.4097 15.976 23.3297 17.016V17.256H27.3857ZM32.7328 14.28V12H34.7728V11.088C34.7728 9.568 35.2128 8.384 36.0928 7.536C36.9888 6.672 38.1968 6.24 39.7168 6.24C41.0928 6.24 42.1968 6.592 43.0288 7.296C43.8768 8 44.3008 8.944 44.3008 10.128H41.9248V9.984C41.9248 9.488 41.7168 9.088 41.3008 8.784C40.9008 8.48 40.4208 8.328 39.8608 8.328C39.3968 8.328 38.9888 8.456 38.6368 8.712C38.3008 8.952 38.1328 9.32 38.1328 9.816C38.1328 10.04 38.1568 10.24 38.2048 10.416C38.2688 10.592 38.3328 10.76 38.3968 10.92C38.4608 11.064 38.5008 11.16 38.5168 11.208C38.6608 11.496 38.7728 11.76 38.8528 12H42.9328V14.28H39.0688C39.2448 14.808 39.3328 15.424 39.3328 16.128V24H34.7728V14.28H32.7328ZM47.1414 24.24C45.8774 24.24 44.8854 23.952 44.1654 23.376C43.4614 22.784 43.1094 21.992 43.1094 21C43.1094 18.84 44.8294 17.624 48.2694 17.352C49.2934 17.272 50.0214 17.088 50.4534 16.8C50.9014 16.496 51.1254 16.072 51.1254 15.528C51.1254 15.016 50.9574 14.632 50.6214 14.376C50.2854 14.12 49.8454 13.992 49.3014 13.992C48.6454 13.992 48.0694 14.2 47.5734 14.616C47.0934 15.032 46.7974 15.584 46.6854 16.272H44.3334C44.4934 14.896 45.0934 13.8 46.1334 12.984C47.1894 12.168 48.5014 11.76 50.0694 11.76C51.1254 11.76 52.0614 11.968 52.8774 12.384C53.6934 12.784 54.3254 13.368 54.7734 14.136C55.2374 14.888 55.4694 15.776 55.4694 16.8V21.768H56.6214V24H51.3414V22.224C50.4614 23.568 49.0614 24.24 47.1414 24.24ZM48.7734 22.008C49.1574 22.008 49.5334 21.88 49.9014 21.624C50.2694 21.352 50.5734 20.976 50.8134 20.496C51.0534 20.016 51.1734 19.472 51.1734 18.864V17.784C51.0294 17.928 50.7974 18.072 50.4774 18.216C50.1734 18.344 49.8534 18.448 49.5174 18.528C48.8774 18.672 48.4214 18.904 48.1494 19.224C47.8934 19.544 47.7654 19.984 47.7654 20.544C47.7654 21.024 47.8534 21.392 48.0294 21.648C48.2214 21.888 48.4694 22.008 48.7734 22.008ZM63.4074 7.2H68.6394L74.6634 24H69.0474L67.6314 19.896H61.7754L60.3834 24H57.3834L63.4074 7.2ZM66.9114 17.568L64.7994 11.28H64.6074L62.4954 17.568H66.9114ZM80.9074 12V13.704C81.2594 13.064 81.7234 12.584 82.2994 12.264C82.8754 11.928 83.5474 11.76 84.3154 11.76C85.5314 11.76 86.4914 12.16 87.1954 12.96C87.9154 13.744 88.2754 14.896 88.2754 16.416V17.088H83.7634V16.56C83.7634 15.28 83.3714 14.64 82.5874 14.64C82.1234 14.64 81.7554 14.904 81.4834 15.432C81.2274 15.96 81.0994 16.648 81.0994 17.496V24H76.5394V12H80.9074ZM95.5543 24.24C92.5463 24.24 91.0423 22.88 91.0423 20.16V14.28H88.7623V12H90.1783C90.5463 12 90.8263 11.904 91.0183 11.712C91.2103 11.504 91.3063 11.216 91.3063 10.848V9.12H95.6023V12H99.0823V14.28H95.6023V19.92C95.6023 20.544 95.7223 21.008 95.9623 21.312C96.2183 21.616 96.6183 21.768 97.1623 21.768C97.5623 21.768 98.2023 21.68 99.0823 21.504V23.76C98.6663 23.92 98.1143 24.04 97.4263 24.12C96.7543 24.2 96.1303 24.24 95.5543 24.24Z" fill="white"/>
<circle cx="110.5" cy="9.5" r="2.5" fill="white"/>
</svg>
